<?xml version="1.0" encoding="UTF-8"?>
<svg version="1.1" xmlns="http://www.w3.org/2000/svg" width="571" height="571">
<path d="M0 0 C86.46 0 172.92 0 262 0 C262 0.33 262 0.66 262 1 C261.39865234 1.06469482 260.79730469 1.12938965 260.17773438 1.19604492 C198.36267414 8.00014027 139.90175418 31.31644998 94 74 C92.69112998 75.1292212 91.3787241 76.2543594 90.0625 77.375 C81.13462478 85.18689081 73.37567023 93.72734983 66 103 C65.28328125 103.84949219 64.5665625 104.69898437 63.828125 105.57421875 C53.55929016 117.75480476 44.81527144 131.13377964 37 145 C36.57219238 145.75845215 36.14438477 146.5169043 35.70361328 147.29833984 C15.99656802 182.64612251 4.48707602 221.71646513 1 262 C0.67 262 0.34 262 0 262 C0 175.54 0 89.08 0 0 Z " fill="#000000" transform="translate(0,0)"/>
<path d="M0 0 C86.46 0 172.92 0 262 0 C262 86.46 262 172.92 262 262 C261.67 262 261.34 262 261 262 C260.93530518 261.39865234 260.87061035 260.79730469 260.80395508 260.17773438 C253.99985973 198.36267414 230.68355002 139.90175418 188 94 C186.8707788 92.69112998 185.7456406 91.3787241 184.625 90.0625 C176.81310919 81.13462478 168.27265017 73.37567023 159 66 C158.15050781 65.28328125 157.30101562 64.5665625 156.42578125 63.828125 C144.24519524 53.55929016 130.86622036 44.81527144 117 37 C116.24154785 36.57219238 115.4830957 36.14438477 114.70166016 35.70361328 C79.35387749 15.99656802 40.28353487 4.48707602 0 1 C0 0.67 0 0.34 0 0 Z " fill="#000000" transform="translate(309,0)"/>
<path d="M0 0 C1.55823486 0.00858032 1.55823486 0.00858032 3.14794922 0.01733398 C26.70011791 0.55302047 47.16995333 10.71033281 63.5 27.5 C64.43392578 28.40298828 64.43392578 28.40298828 65.38671875 29.32421875 C79.4885983 43.91553447 88.57635498 66.40788729 88.49072266 86.69824219 C88.29354678 93.75802814 87.86558788 100.69201537 86.5 107.625 C85.56971249 116.08480206 91.75099563 125.17461425 95.5625 132.46484375 C95.88734375 133.09229492 96.2121875 133.71974609 96.546875 134.36621094 C97.44974108 136.09146222 98.38035188 137.80211089 99.3125 139.51171875 C100.6078935 142.77150831 100.57249271 144.21549106 99.5 147.5 C94.16164461 149.42471317 89.15020618 150.89891424 83.5 151.5 C83.63277344 152.09167969 83.76554688 152.68335938 83.90234375 153.29296875 C84.2662637 154.92131132 84.62141562 156.55163294 84.96875 158.18359375 C85.48043715 160.59707746 85.48043715 160.59707746 86.4375 163.25 C86.4684375 164.36375 86.4684375 164.36375 86.5 165.5 C85.675 166.2425 84.85 166.985 84 167.75 C81.25431428 170.15324625 81.25431428 170.15324625 81.4921875 172.7109375 C81.74223729 174.28778209 82.0425429 175.85768761 82.3984375 177.4140625 C82.5 179.5 82.5 179.5 81.2265625 181.2734375 C79.5 182.5 79.5 182.5 76.5 182.5 C76.32984375 183.49 76.1596875 184.48 75.984375 185.5 C74.11153418 195.90935733 72.51920938 204.16736363 63.5 210.5 C52.72762824 214.09079059 39.45977938 210.0411652 29.13891602 206.58374023 C23.46318289 204.66823653 23.46318289 204.66823653 17.5 204.5 C17.11497314 205.77605103 17.11497314 205.77605103 16.72216797 207.07788086 C15.42629839 210.70636746 13.80378862 213.87990115 11.9453125 217.25390625 C11.43108231 218.18891212 11.43108231 218.18891212 10.90646362 219.14280701 C10.18440461 220.45260158 9.4598453 221.76102062 8.73291016 223.06811523 C7.62837938 225.05641666 6.5344041 227.05026221 5.44140625 229.04492188 C4.73500085 230.32326271 4.02798964 231.601269 3.3203125 232.87890625 C2.68367676 234.0294751 2.04704102 235.18004395 1.39111328 236.36547852 C-3.11890864 243.84084276 -3.11890864 243.84084276 -7.25 245.8125 C-21.59606444 248.8472444 -35.47789735 240.91281666 -47.8125 234.3125 C-49.07645448 233.64602931 -50.34078228 232.98026617 -51.60546875 232.31518555 C-55.24664382 230.3945301 -58.87450186 228.45009026 -62.5 226.5 C-63.48790527 225.97019531 -64.47581055 225.44039062 -65.49365234 224.89453125 C-68.00148447 223.54398603 -70.50304289 222.18303022 -73 220.8125 C-73.70423096 220.42747314 -74.40846191 220.04244629 -75.1340332 219.64575195 C-80.03298091 216.90851756 -84.93003489 214.15767646 -87.8125 209.1875 C-88.30169922 208.38892578 -88.30169922 208.38892578 -88.80078125 207.57421875 C-90.32856518 203.0420776 -90.24485501 200.10319932 -88.24536133 195.79956055 C-86.4871603 192.64952547 -84.6423302 189.57128195 -82.75 186.5 C-82.11578125 185.44554687 -81.4815625 184.39109375 -80.828125 183.3046875 C-75.87913786 175.07699638 -75.87913786 175.07699638 -74.14331055 172.43530273 C-71.45601875 168.21711882 -71.18743486 165.4814909 -71.8125 160.5625 C-72.37084139 154.8537442 -72.53826194 149.41357486 -72.1875 143.6875 C-72.15245361 142.99986572 -72.11740723 142.31223145 -72.08129883 141.60375977 C-71.75013324 136.75013324 -71.75013324 136.75013324 -69.5 134.5 C-66.86776733 134.2215271 -66.86776733 134.2215271 -63.48974609 134.18115234 C-61.59801163 134.15134781 -61.59801163 134.15134781 -59.6680603 134.12094116 C-58.28652115 134.10906386 -56.90498014 134.09740105 -55.5234375 134.0859375 C-54.11380876 134.0672329 -52.70419129 134.04766002 -51.29458618 134.0272522 C-47.58254638 133.97584988 -43.87047023 133.93626781 -40.15826416 133.89910889 C-36.37104241 133.85911978 -32.58397285 133.80800429 -28.796875 133.7578125 C-21.36468762 133.66095743 -13.93242683 133.57658363 -6.5 133.5 C-6.27793129 132.55286385 -6.27793129 132.55286385 -6.05137634 131.58659363 C-5.35836419 128.69089651 -4.63073865 125.80495959 -3.90234375 122.91796875 C-3.67011108 121.92470581 -3.43787842 120.93144287 -3.1986084 119.90808105 C-0.80984387 110.62827945 3.72392138 106.51925714 11.00683594 100.78271484 C19.21954587 93.72751897 22.61991899 81.96068676 23.84375 71.5859375 C24.36501431 56.51271109 18.28826174 44.46801457 8.5 33.5 C6.2938751 31.2938751 4.00951756 29.35146629 1.5 27.5 C0.91992188 27.07203125 0.33984375 26.6440625 -0.2578125 26.203125 C-9.94562372 19.63649145 -20.88874345 16.93879797 -32.26171875 15.078125 C-35.5 14.5 -35.5 14.5 -37.5 13.5 C-36.32262151 9.96786453 -35.18200491 9.51707501 -31.97265625 7.89453125 C-31.36292969 7.59933594 -30.75320312 7.30414062 -30.125 7 C-28.96226562 6.4121875 -27.79953125 5.824375 -26.6015625 5.21875 C-17.94153979 1.3611431 -9.43457829 -0.06138459 0 0 Z " fill="#000000" transform="translate(284.5,1.5)"/>
<path d="M0 0 C6.15397074 5.27483206 11.92649469 11.2230132 12.89895284 19.61377609 C13.002343 22.4261233 13.01038451 25.22414332 12.98576355 28.03831482 C12.9883316 29.11160034 12.99089966 30.18488586 12.99354553 31.29069519 C12.99850457 34.8924359 12.98195144 38.49375661 12.96557617 42.09545898 C12.96465706 44.71953601 12.96505783 47.34361378 12.96667194 49.96769047 C12.96826467 56.28246791 12.95443477 62.59711701 12.93516796 68.91186151 C12.91354308 76.21862889 12.91118235 83.52535161 12.90881348 90.83215332 C12.8930712 110.11728918 12.85118775 129.40239652 12.8125 148.6875 C12.750625 191.773125 12.68875 234.85875 12.625 279.25 C-73.835 279.25 -160.295 279.25 -249.375 279.25 C-249.375 278.92 -249.375 278.59 -249.375 278.25 C-248.47297852 278.15295776 -248.47297852 278.15295776 -247.55273438 278.05395508 C-185.73767414 271.24985973 -127.27675418 247.93355002 -81.375 205.25 C-80.06612998 204.1207788 -78.7537241 202.9956406 -77.4375 201.875 C-68.50962478 194.06310919 -60.75067023 185.52265017 -53.375 176.25 C-52.65828125 175.40050781 -51.9415625 174.55101562 -51.203125 173.67578125 C-40.93429016 161.49519524 -32.19027144 148.11622036 -24.375 134.25 C-23.94719238 133.49154785 -23.51938477 132.7330957 -23.07861328 131.95166016 C-8.17104673 105.21252116 8.625 69.52309552 8.625 38.25 C7.944375 39.301875 7.26375 40.35375 6.5625 41.4375 C0.68718693 49.62983795 -8.14319468 53.16766542 -17.8515625 54.90234375 C-29.06806405 56.44765124 -41.66852611 55.45423235 -51.1875 49.01953125 C-57.29032039 44.08278547 -62.53899141 38.15783937 -63.67504883 30.12963867 C-63.81225555 27.84929807 -63.83370312 25.59665385 -63.8125 23.3125 C-63.83248047 22.55259766 -63.85246094 21.79269531 -63.87304688 21.00976562 C-63.86717491 14.13369852 -61.74725228 9.17705321 -57.4375 3.859375 C-42.13762624 -9.93369301 -17.63479789 -9.14396928 0 0 Z M-34.375 22.25 C-36.50398317 25.99407386 -37.375 28.55565444 -37.375 32.875 C-36.18655037 36.8860175 -34.52819678 38.56978274 -31.375 41.25 C-31.045 41.58 -30.715 41.91 -30.375 42.25 C-25.66200498 42.85524778 -22.20596075 42.67303456 -17.9375 40.5 C-14.23932334 37.25282049 -13.50771766 35.70989425 -13.0625 30.8125 C-13.39933498 26.97258117 -13.92977603 25.20113237 -16.375 22.25 C-21.55908689 19.04806398 -29.2328402 18.93494805 -34.375 22.25 Z " fill="#000000" transform="translate(558.375,291.75)"/>
<path d="M0 0 C1.1310466 -0.00960754 2.2620932 -0.01921509 3.42741394 -0.02911377 C4.63384048 -0.03336365 5.84026703 -0.03761353 7.08325195 -0.04199219 C8.33282181 -0.04769226 9.58239166 -0.05339233 10.86982727 -0.05926514 C13.50484373 -0.06869227 16.13987185 -0.07524 18.77490234 -0.07910156 C22.15106962 -0.08461217 25.52683887 -0.10871466 28.90288067 -0.13707352 C32.12964095 -0.16014929 35.35642068 -0.16214387 38.58325195 -0.16699219 C40.40200081 -0.18551239 40.40200081 -0.18551239 42.25749207 -0.20440674 C43.37908218 -0.20140564 44.5006723 -0.19840454 45.65625 -0.1953125 C47.13800972 -0.20078094 47.13800972 -0.20078094 48.64970398 -0.20635986 C51.5460863 0.22208548 52.38613571 0.86516892 54.1340332 3.16113281 C55.99041099 6.87388838 55.31878373 11.32541243 55.3215332 15.41113281 C55.3337793 16.3534375 55.34602539 17.29574219 55.35864258 18.26660156 C55.37233645 24.77575737 54.82750406 29.62092653 51.1340332 35.16113281 C47.84941137 36.25600676 45.45713327 36.22760221 42.0090332 36.16113281 C40.05106015 36.12356978 38.09180837 36.11437997 36.1340332 36.16113281 C34.77549296 37.31254149 34.77549296 37.31254149 34.7590332 40.41113281 C35.22912884 45.11208922 36.84719861 45.95646908 40.1340332 49.16113281 C40.63875488 52.31564327 40.8298225 54.13005815 39.01586914 56.81811523 C36.21398062 58.81775052 33.93589743 58.5329123 30.5246582 58.52441406 C29.21239258 58.52376953 27.90012695 58.523125 26.5480957 58.52246094 C25.86392578 58.5141626 25.17975586 58.50586426 24.47485352 58.49731445 C22.40511587 58.4738716 20.33668111 58.47673588 18.2668457 58.48339844 C11.76783357 58.44842332 6.30630758 58.1443732 0.1340332 56.16113281 C0.1340332 53.85113281 0.1340332 51.54113281 0.1340332 49.16113281 C2.4440332 48.17113281 4.7540332 47.18113281 7.1340332 46.16113281 C7.16088732 43.84869489 7.18036161 41.53617011 7.1965332 39.22363281 C7.20813477 37.93585938 7.21973633 36.64808594 7.23168945 35.32128906 C7.49935869 32.29814878 7.49935869 32.29814878 6.1340332 31.16113281 C5.7215332 32.15113281 5.3090332 33.14113281 4.8840332 34.16113281 C3.80981445 35.81347656 3.80981445 35.81347656 2.1340332 37.16113281 C-2.26004728 37.9429761 -7.63794845 38.63529057 -11.51904297 36.06738281 C-13.57429146 33.1586679 -13.22000774 30.67978376 -13.1940918 27.15722656 C-13.19221863 26.47813736 -13.19034546 25.79904816 -13.18841553 25.09938049 C-13.18170201 23.66621987 -13.1678012 22.23307735 -13.1472168 20.80004883 C-13.11603135 18.60318018 -13.10624195 16.40702911 -13.1003418 14.20996094 C-13.02974989 3.48869899 -13.02974989 3.48869899 -11.8659668 1.16113281 C-7.89864064 0.25618625 -4.05828034 0.02798344 0 0 Z " fill="#000000" transform="translate(15.865966796875,286.8388671875)"/>
<path d="M0 0 C1.8528328 -0.03063301 3.70569638 -0.05949697 5.55859375 -0.0859375 C6.37005859 -0.10736816 7.18152344 -0.12879883 8.01757812 -0.15087891 C12.52383477 -0.17749066 15.47987269 0.25679593 18.99609375 3.1640625 C21.74652185 6.72881674 21.33953949 11.03697612 21.30859375 15.3515625 C21.30585449 16.11098145 21.30311523 16.87040039 21.30029297 17.65283203 C21.16949687 24.67522954 19.97178437 30.20052657 15.99609375 36.1640625 C4.63712538 35.32592503 4.63712538 35.32592503 0.99609375 33.1640625 C0.33609375 31.8440625 -0.32390625 30.5240625 -1.00390625 29.1640625 C-4.30390625 29.1640625 -7.60390625 29.1640625 -11.00390625 29.1640625 C-10.30265625 29.9684375 -9.60140625 30.7728125 -8.87890625 31.6015625 C-7.3760955 33.80323279 -6.97617958 34.80421857 -7.18359375 37.49609375 C-7.71469526 39.74781863 -8.34750434 41.94648848 -9.00390625 44.1640625 C-9.00390625 44.8240625 -9.00390625 45.4840625 -9.00390625 46.1640625 C-4.9016704 47.17946362 -4.9016704 47.17946362 -1.00390625 46.1640625 C-0.61203125 45.3596875 -0.22015625 44.5553125 0.18359375 43.7265625 C2.6862052 40.18838769 4.80543551 39.94537166 8.99609375 39.1640625 C12.30859375 38.9140625 12.30859375 38.9140625 14.99609375 39.1640625 C17.85810056 42.02606931 18.55094291 45.2467351 18.99609375 49.1640625 C18.70923448 52.14739888 18.0354731 54.29339572 16.99609375 57.1640625 C13.64256931 59.39974546 12.54380462 59.41640522 8.62597656 59.42285156 C7.52763489 59.42915588 6.42929321 59.43546021 5.29766846 59.44195557 C4.11018005 59.4379071 2.92269165 59.43385864 1.69921875 59.4296875 C-0.13397919 59.43255768 -0.13397919 59.43255768 -2.00421143 59.43548584 C-4.5933045 59.43684819 -7.18240439 59.43314828 -9.77148438 59.42480469 C-13.72411596 59.41414286 -17.6762892 59.42467964 -21.62890625 59.4375 C-24.14453225 59.43617769 -26.66015797 59.43361383 -29.17578125 59.4296875 C-30.94486847 59.43576019 -30.94486847 59.43576019 -32.74969482 59.44195557 C-38.55378454 59.40901904 -43.53206394 59.15832425 -49.00390625 57.1640625 C-49.00390625 54.8540625 -49.00390625 52.5440625 -49.00390625 50.1640625 C-46.35651709 48.703434 -45.10942291 48.1640625 -42.00390625 48.1640625 C-42.09078655 45.2251118 -42.19764392 42.28924961 -42.31640625 39.3515625 C-42.33896484 38.51818359 -42.36152344 37.68480469 -42.38476562 36.82617188 C-42.42021484 36.02373047 -42.45566406 35.22128906 -42.4921875 34.39453125 C-42.51837158 33.65614014 -42.54455566 32.91774902 -42.5715332 32.15698242 C-43.1193795 29.63181624 -43.98856181 28.74429939 -46.00390625 27.1640625 C-46.99390625 26.8340625 -47.98390625 26.5040625 -49.00390625 26.1640625 C-50.23028195 23.71131109 -50.11805939 22.1134844 -50.1015625 19.375 C-50.09833984 18.43398438 -50.09511719 17.49296875 -50.09179688 16.5234375 C-50.08341797 15.53859375 -50.07503906 14.55375 -50.06640625 13.5390625 C-50.06189453 12.54648437 -50.05738281 11.55390625 -50.05273438 10.53125 C-50.0409277 8.0754609 -50.02446025 5.61979146 -50.00390625 3.1640625 C-45.68502958 1.05639152 -41.66023004 0.82390398 -36.94140625 0.75 C-36.16095444 0.73045258 -35.38050262 0.71090515 -34.57640076 0.69076538 C-32.05234367 0.6303361 -29.52828513 0.5838851 -27.00390625 0.5390625 C-25.27481325 0.50330066 -23.5457279 0.4671671 -21.81665039 0.43066406 C-17.62279952 0.3451283 -13.42882782 0.27290436 -9.23468018 0.20373535 C-6.1561382 0.1489855 -3.07815187 0.07316804 0 0 Z " fill="#000000" transform="translate(144.00390625,285.8359375)"/>
<path d="M0 0 C2.36053949 0.40454526 2.36053949 0.40454526 5.33984375 -0.6796875 C9.7954536 -1.93709887 13.74820037 -2.1252289 18.34765625 -2.1328125 C19.14107422 -2.15730469 19.93449219 -2.18179687 20.75195312 -2.20703125 C24.51786824 -2.22600311 26.51936336 -2.21451575 29.6484375 0.015625 C33.80880716 6.14330124 32.61003197 14.52808142 31.34765625 21.4921875 C30.44784744 25.4389351 29.51053439 28.88450445 27.16015625 32.2421875 C20.34966648 35.18062392 13.0129946 34.55560948 5.9375 32.640625 C3.07491027 31.49558911 0.97840795 30.08315774 -1.33984375 28.0546875 C-3.81815224 25.96962418 -3.81815224 25.96962418 -7.40234375 25.6796875 C-10.93138033 25.94086309 -10.93138033 25.94086309 -13.21484375 28.3671875 C-15.5226908 32.45030152 -16.33845248 35.4139555 -15.08984375 39.9921875 C-13.90494542 42.52953281 -13.90494542 42.52953281 -10.83984375 44.2421875 C-7.38026793 44.78486606 -4.93901438 44.98560996 -1.95703125 42.96875 C-1.32023437 42.44023437 -0.6834375 41.91171875 -0.02734375 41.3671875 C6.42423627 36.09653253 13.97950077 36.04692028 22.03125 35.87890625 C24.69547717 36.33353584 25.53363174 37.11825488 27.16015625 39.2421875 C28.76876299 44.06800772 28.65842981 48.40240822 27.34765625 53.2421875 C24.11542978 56.19736599 21.19064539 55.66752182 16.94921875 55.515625 C14.16015625 55.2421875 14.16015625 55.2421875 11.6015625 54.6328125 C8.73186218 54.17366045 7.18872192 54.63850599 4.47265625 55.6171875 C-5.51161097 58.81746222 -15.45802919 59.18803586 -25.35546875 55.23828125 C-32.65612941 51.47620611 -38.11713871 46.73420674 -41.27734375 39.0546875 C-44.07561931 30.19953844 -43.88344721 21.48112364 -40.36328125 12.85546875 C-36.68078078 6.5385641 -30.27775334 0.73711269 -23.1640625 -1.3984375 C-15.42906521 -2.59443708 -7.45768157 -2.48078935 0 0 Z " fill="#000000" transform="translate(231.83984375,288.7578125)"/>
<path d="M0 0 C2.01334397 -0.0119537 4.02367362 -0.06123627 6.03637695 -0.11157227 C7.94580078 -0.12220703 7.94580078 -0.12220703 9.89379883 -0.13305664 C11.05596924 -0.14651123 12.21813965 -0.15996582 13.41552734 -0.17382812 C16.45239258 0.42553711 16.45239258 0.42553711 18.86230469 2.83544922 C20.45239258 5.42553711 20.45239258 5.42553711 20.45239258 7.42553711 C22.7241235 6.57986972 22.7241235 6.57986972 23.32739258 3.92553711 C24.45239258 1.42553711 24.45239258 1.42553711 26.1105957 0.78857422 C31.01245607 0.02866321 35.97332601 0.08012496 40.92456055 0.02050781 C42.27670725 -0.00114346 43.62871114 -0.03533195 44.98022461 -0.08203125 C46.93891905 -0.14897277 48.8989365 -0.17281535 50.85864258 -0.19555664 C52.02717773 -0.22061279 53.19571289 -0.24566895 54.3996582 -0.27148438 C57.45239258 0.42553711 57.45239258 0.42553711 59.82910156 3.27197266 C62.5576175 8.57265553 62.28914395 13.6097693 61.45239258 19.42553711 C60.32348633 21.92944336 60.32348633 21.92944336 58.95239258 24.23803711 C54.90630145 31.24132798 55.42630502 40.3175684 56.98754883 48.08959961 C57.18219727 48.77795898 57.3768457 49.46631836 57.57739258 50.17553711 C58.45239258 53.42553711 58.45239258 53.42553711 57.70239258 55.86303711 C56.45239258 57.42553711 56.45239258 57.42553711 54.45239258 58.42553711 C49.99884388 58.67039587 45.53691006 58.61074312 41.07739258 58.61303711 C39.8321582 58.6252832 38.58692383 58.6375293 37.30395508 58.65014648 C35.50958008 58.65304687 35.50958008 58.65304687 33.67895508 58.65600586 C32.58147949 58.66011475 31.48400391 58.66422363 30.35327148 58.66845703 C27.50772239 58.43017043 25.8633145 57.90066469 23.45239258 56.42553711 C23.45239258 54.11553711 23.45239258 51.80553711 23.45239258 49.42553711 C25.10239258 48.76553711 26.75239258 48.10553711 28.45239258 47.42553711 C27.95739258 45.44553711 27.95739258 45.44553711 27.45239258 43.42553711 C24.48239258 43.42553711 21.51239258 43.42553711 18.45239258 43.42553711 C18.4755957 44.18479492 18.49879883 44.94405273 18.52270508 45.72631836 C18.54075195 46.72018555 18.55879883 47.71405273 18.57739258 48.73803711 C18.6005957 49.72416992 18.62379883 50.71030273 18.64770508 51.72631836 C18.45239258 54.42553711 18.45239258 54.42553711 16.45239258 57.42553711 C11.57567409 59.05110994 6.55857854 58.61006148 1.45239258 58.61303711 C0.34637695 58.6252832 -0.75963867 58.6375293 -1.89916992 58.65014648 C-2.9587793 58.65208008 -4.01838867 58.65401367 -5.11010742 58.65600586 C-6.08077148 58.66011475 -7.05143555 58.66422363 -8.05151367 58.66845703 C-10.54760742 58.42553711 -10.54760742 58.42553711 -13.54760742 56.42553711 C-13.92260742 52.98803711 -13.92260742 52.98803711 -13.54760742 49.42553711 C-13.04712891 48.94286377 -12.54665039 48.46019043 -12.03100586 47.96289062 C-10.36620307 46.5410445 -10.36620307 46.5410445 -10.28295898 44.46435547 C-10.33419922 43.73869385 -10.38543945 43.01303223 -10.43823242 42.26538086 C-10.51364258 41.07525391 -10.51364258 41.07525391 -10.59057617 39.86108398 C-10.65889648 39.03672852 -10.7272168 38.21237305 -10.79760742 37.36303711 C-10.85045898 36.53481445 -10.90331055 35.7065918 -10.95776367 34.85327148 C-11.16743523 30.49169853 -11.16743523 30.49169853 -12.54760742 26.42553711 C-13.20760742 26.11616211 -13.86760742 25.80678711 -14.54760742 25.48803711 C-16.54760742 24.42553711 -16.54760742 24.42553711 -17.54760742 21.42553711 C-17.62826962 19.94430164 -17.65521935 18.45971507 -17.64526367 16.97631836 C-17.64204102 16.12875977 -17.63881836 15.28120117 -17.63549805 14.40795898 C-17.62711914 13.52688477 -17.61874023 12.64581055 -17.61010742 11.73803711 C-17.6055957 10.84536133 -17.60108398 9.95268555 -17.59643555 9.03295898 C-17.58465725 6.83041724 -17.56820906 4.62801112 -17.54760742 2.42553711 C-11.81797925 -0.26289286 -6.22838799 0.01753187 0 0 Z M20.45239258 16.42553711 C19.94481396 17.83950613 19.44664333 19.2568544 18.95239258 20.67553711 C18.67395508 21.46444336 18.39551758 22.25334961 18.10864258 23.06616211 C17.27374397 25.65966449 17.27374397 25.65966449 17.45239258 29.42553711 C20.92237987 31.73886197 22.37748506 31.76511274 26.45239258 31.42553711 C27.44239258 30.76553711 28.43239258 30.10553711 29.45239258 29.42553711 C28.08255755 26.26437935 27.46332878 25.43282791 24.45239258 23.42553711 C23.38103207 21.12409602 22.37249541 18.79151581 21.45239258 16.42553711 C21.12239258 16.42553711 20.79239258 16.42553711 20.45239258 16.42553711 Z " fill="#000000" transform="translate(305.547607421875,286.574462890625)"/>
<path d="M0 0 C1.21429688 -0.020625 2.42859375 -0.04125 3.6796875 -0.0625 C4.85015625 -0.06765625 6.020625 -0.0728125 7.2265625 -0.078125 C8.28697754 -0.0874707 9.34739258 -0.09681641 10.43994141 -0.10644531 C14.44462125 0.3798991 17.10351875 1.92923654 19.88671875 4.8203125 C20.46873047 5.58988281 20.46873047 5.58988281 21.0625 6.375 C23.05856337 9.26538782 23.05856337 9.26538782 25.375 10.25 C25.705 7.61 26.035 4.97 26.375 2.25 C33.07663089 0.49219518 39.41851748 0.03125046 46.3125 0 C47.15337158 -0.00902344 47.99424316 -0.01804687 48.8605957 -0.02734375 C50.05688599 -0.02154297 50.05688599 -0.02154297 51.27734375 -0.015625 C51.99398193 -0.01336914 52.71062012 -0.01111328 53.44897461 -0.00878906 C55.375 0.25 55.375 0.25 58.375 2.25 C61.12860564 8.72097325 60.81615907 15.60823 58.73828125 22.30078125 C57.61323933 24.98540509 56.23488533 27.49719982 54.80078125 30.02734375 C53.22359995 33.5922056 53.01205887 36.12293863 52.9375 40 C52.63830975 46.00290229 51.90669475 53.71830525 47.375 58.25 C40.76860737 59.17290309 34.22801657 59.49153992 27.5625 59.5625 C26.1712793 59.60600586 26.1712793 59.60600586 24.75195312 59.65039062 C17.98985393 59.71377007 17.98985393 59.71377007 14.86328125 57.35546875 C14.37214844 56.66066406 13.88101563 55.96585937 13.375 55.25 C12.715 54.59 12.055 53.93 11.375 53.25 C10.73175781 54.06597656 10.08851563 54.88195312 9.42578125 55.72265625 C5.3478003 59.10095801 2.67903876 58.90297768 -2.4375 58.6875 C-3.20642578 58.68169922 -3.97535156 58.67589844 -4.76757812 58.66992188 C-9.98669001 58.55981403 -14.60726569 57.67464748 -19.625 56.25 C-19.625 53.94 -19.625 51.63 -19.625 49.25 C-17.645 48.755 -17.645 48.755 -15.625 48.25 C-15.625 40.99 -15.625 33.73 -15.625 26.25 C-18.1 25.26 -18.1 25.26 -20.625 24.25 C-22.95423083 21.92076917 -22.15023292 16.45615414 -22.3125 13.3125 C-22.37244141 12.37986328 -22.43238281 11.44722656 -22.49414062 10.48632812 C-22.5647168 9.14924805 -22.5647168 9.14924805 -22.63671875 7.78515625 C-22.68272217 6.964104 -22.72872559 6.14305176 -22.77612305 5.29711914 C-22.625 3.25 -22.625 3.25 -20.625 1.25 C-13.86654036 -0.23495733 -6.88760936 0.02943423 0 0 Z " fill="#000000" transform="translate(412.625,286.75)"/>
<path d="M0 0 C0.33 0 0.66 0 1 0 C1.06469482 0.60134766 1.12938965 1.20269531 1.19604492 1.82226562 C8.00355354 63.66833536 31.28805459 122.0677095 74 168 C75.1292212 169.30887002 76.2543594 170.6212759 77.375 171.9375 C85.18689081 180.86537522 93.72734983 188.62432977 103 196 C103.84949219 196.71671875 104.69898437 197.4334375 105.57421875 198.171875 C117.75480476 208.44070984 131.13377964 217.18472856 145 225 C145.75845215 225.42780762 146.5169043 225.85561523 147.29833984 226.29638672 C182.64612251 246.00343198 221.71646513 257.51292398 262 261 C262 261.33 262 261.66 262 262 C175.54 262 89.08 262 0 262 C0 175.54 0 89.08 0 0 Z " fill="#000000" transform="translate(0,309)"/>
<path d="M0 0 C0.99613314 -0.00260775 1.99226627 -0.00521549 3.01858526 -0.00790226 C4.67220396 -0.00455618 4.67220396 -0.00455618 6.35922909 -0.0011425 C7.52404479 -0.00270249 8.6888605 -0.00426248 9.88897365 -0.00586975 C13.13198554 -0.00917925 16.37496031 -0.00797322 19.6179713 -0.00488353 C23.11151417 -0.00262892 26.60505186 -0.00610933 30.09859371 -0.00886345 C36.94605214 -0.01331934 43.79349963 -0.01234552 50.6409585 -0.00945081 C56.20345156 -0.00719625 61.76594155 -0.00688448 67.32843494 -0.00797462 C68.11885319 -0.00812786 68.90927145 -0.00828109 69.72364176 -0.00843897 C71.32913797 -0.00875868 72.93463417 -0.00908289 74.54013037 -0.00941156 C89.60856011 -0.01226577 104.67698378 -0.00898015 119.74541252 -0.00361119 C132.68862277 0.00085766 145.63182405 0.00008013 158.57503414 -0.00452995 C173.58955993 -0.00987526 188.60408038 -0.011992 203.61860698 -0.00891769 C205.21802962 -0.00859912 206.81745225 -0.00828475 208.41687489 -0.00797462 C209.20391562 -0.00782035 209.99095636 -0.00766607 210.80184682 -0.00750712 C216.36133567 -0.0066419 221.92082116 -0.00810494 227.48030949 -0.01045418 C234.25009815 -0.01325185 241.01987522 -0.01251458 247.78966255 -0.00717343 C251.24693675 -0.0045361 254.70419157 -0.00353189 258.16146564 -0.00682259 C261.90074635 -0.00953075 265.63997152 -0.00615708 269.37924862 -0.0011425 C270.4838918 -0.00337322 271.58853499 -0.00560395 272.7266522 -0.00790226 C273.7201776 -0.00529452 274.71370299 -0.00268677 275.73733521 0 C276.60163369 0.00016235 277.46593218 0.0003247 278.35642153 0.00049198 C280.30574703 0.12584114 280.30574703 0.12584114 281.30574703 1.12584114 C281.30574703 33.79584114 281.30574703 66.46584114 281.30574703 100.12584114 C186.26574703 100.12584114 91.22574703 100.12584114 -6.69425297 100.12584114 C-6.69425297 67.45584114 -6.69425297 34.78584114 -6.69425297 1.12584114 C-4.26185891 -0.09035589 -2.71899061 0.00051065 0 0 Z M1.30574703 15.12584114 C1.30574703 38.22584114 1.30574703 61.32584114 1.30574703 85.12584114 C4.6032468 85.95021608 7.03117046 86.28817465 10.36824703 86.31334114 C11.65408688 86.33461067 11.65408688 86.33461067 12.96590328 86.35630989 C15.57773012 86.284302 15.57773012 86.284302 18.30574703 84.12584114 C18.68959212 81.18986576 18.90959004 78.44556741 18.99324703 75.50084114 C19.02740719 74.69904427 19.06156734 73.89724739 19.09676266 73.07115364 C19.17931581 71.08987796 19.24420619 69.10788077 19.30574703 67.12584114 C19.54809078 67.75490364 19.79043453 68.38396614 20.04012203 69.03209114 C21.10115026 71.74179399 22.20199221 74.43329044 23.30574703 77.12584114 C23.60609859 77.9211927 23.90645016 78.71654427 24.21590328 79.53599739 C25.09307095 81.6282891 25.88540328 83.35502296 27.30574703 85.12584114 C31.28448119 86.31248115 33.37584028 86.43581006 37.30574703 85.12584114 C38.48222979 82.45680562 39.49038459 79.87604688 40.43074703 77.12584114 C43.21755075 69.21403743 43.21755075 69.21403743 44.30574703 68.12584114 C44.96574703 73.73584114 45.62574703 79.34584114 46.30574703 85.12584114 C54.34027666 86.85705443 54.34027666 86.85705443 62.02075863 85.0071888 C63.90275068 82.2517699 63.67986634 80.09127961 63.67806149 76.77427864 C63.68429028 75.46281868 63.69051907 74.15135872 63.69693661 72.80015755 C63.68824854 71.36704822 63.67893056 69.93394259 63.66902828 68.50084114 C63.66850963 67.03257943 63.66902752 65.56431701 63.6705389 64.09605598 C63.67044919 61.01929034 63.66002276 57.94278679 63.64192867 54.86607552 C63.61924137 50.92153612 63.61869748 46.97737972 63.62544632 43.03279305 C63.62878726 40.00105063 63.62215388 36.9693956 63.61231709 33.93766975 C63.60846694 32.48320663 63.6073161 31.02873379 63.60890293 29.57426643 C63.60927363 27.54195667 63.59517617 25.50965976 63.58040524 23.47740364 C63.57579784 22.32063118 63.57119045 21.16385872 63.56644344 19.97203255 C63.5151668 16.92376889 63.5151668 16.92376889 61.30574703 14.12584114 C58.81489258 13.64609506 58.81489258 13.64609506 55.99324703 13.75084114 C54.57592281 13.73923958 54.57592281 13.73923958 53.12996578 13.72740364 C49.6852525 14.21337979 48.0689538 14.9930513 45.30574703 17.12584114 C44.0661501 19.65290374 43.13404406 21.91993764 42.26277828 24.56724739 C42.00824383 25.29072868 41.75370937 26.01420998 41.49146175 26.75961494 C40.68378336 29.06381127 39.90002733 31.37524358 39.11824703 33.68834114 C38.32174242 36.00337037 37.52031939 38.31653502 36.7128973 40.62777901 C36.21254613 42.06428011 35.71922218 43.50325224 35.23367977 44.94482613 C33.52701837 49.9045698 33.52701837 49.9045698 31.30574703 52.12584114 C31.02376461 51.32476936 30.74178219 50.52369759 30.45125484 49.69835091 C29.38808473 46.68364105 28.32161717 43.67012271 27.25301266 40.65733528 C26.79403693 39.36124311 26.33632066 38.06470413 25.87996578 36.76768684 C22.60909229 23.97267826 22.60909229 23.97267826 15.30574703 14.12584114 C13.4953291 14.02951217 11.6812195 13.99602581 9.86824703 14.00084114 C8.90016109 13.99826302 7.93207516 13.99568489 6.93465328 13.99302864 C4.19556874 14.01370141 4.19556874 14.01370141 1.30574703 15.12584114 Z M75.30574703 15.12584114 C75.25946553 24.08776509 75.22389923 33.04964809 75.20212269 42.01166534 C75.19167257 46.17281367 75.17749111 50.3338804 75.15486813 54.49498177 C75.13318333 58.50850543 75.12118766 62.52195047 75.11599255 66.53552818 C75.11228892 68.0689855 75.10505692 69.60243838 75.09428692 71.13586235 C75.07982974 73.27893915 75.07776663 75.4216885 75.07869625 77.56480598 C75.07425503 78.78614235 75.0698138 80.00747871 75.065238 81.26582527 C75.00700392 84.25734184 75.00700392 84.25734184 77.30574703 86.12584114 C80.13566872 86.40763103 80.13566872 86.40763103 83.30574703 86.31334114 C84.91449703 86.30367317 84.91449703 86.30367317 86.55574703 86.29380989 C89.26702201 86.30847537 89.26702201 86.30847537 91.30574703 85.12584114 C91.30574703 62.02584114 91.30574703 38.92584114 91.30574703 15.12584114 C88.57496827 13.76045176 86.35014336 13.99352288 83.30574703 14.00084114 C82.23324703 13.99826302 81.16074703 13.99568489 80.05574703 13.99302864 C77.34392651 13.93860704 77.34392651 13.93860704 75.30574703 15.12584114 Z M165.30574703 16.12584114 C164.86516547 19.11741365 164.86516547 19.11741365 164.96517086 22.6868763 C164.96473278 23.36016472 164.9642947 24.03345314 164.96384335 24.72714424 C164.96593647 26.95669052 164.98929084 29.18548845 165.01277828 31.41490364 C165.01837241 32.95903805 165.02264337 34.50317778 165.02564144 36.04731941 C165.03710477 40.11467841 165.06658442 44.18171685 165.09975338 48.24894905 C165.13042241 52.39797313 165.14413998 56.54704892 165.15926266 60.69615364 C165.19145299 68.83953004 165.24266695 76.98264573 165.30574703 85.12584114 C172.66797699 88.80695612 186.51041067 86.48295966 194.02449703 84.05943489 C197.34821355 82.69921529 200.28725584 81.07109102 203.30574703 79.12584114 C203.30574703 78.46584114 203.30574703 77.80584114 203.30574703 77.12584114 C203.96574703 77.12584114 204.62574703 77.12584114 205.30574703 77.12584114 C211.82214449 69.81371198 213.86935459 59.16283659 213.53230953 49.63365364 C212.50139116 38.22245378 209.8103774 29.15799205 201.30574703 21.12584114 C193.36627696 15.3992872 185.22728824 13.98614732 175.61824703 13.93834114 C173.66338375 13.91707161 173.66338375 13.91707161 171.66902828 13.89537239 C168.17372469 13.85525855 168.17372469 13.85525855 165.30574703 16.12584114 Z M228.30574703 15.12584114 C228.23261137 17.65633516 228.21327176 20.15888951 228.24324703 22.68834114 C228.24775875 23.39925911 228.25227047 24.11017708 228.25691891 24.84263802 C228.26873839 26.60374127 228.2866744 28.3648015 228.30574703 30.12584114 C230.81071707 31.37832616 232.51427977 31.23958521 235.31355953 31.22349739 C236.29969234 31.22027473 237.28582516 31.21705208 238.30184078 31.21373177 C239.85064938 31.20116341 239.85064938 31.20116341 241.43074703 31.18834114 C242.47102047 31.18382942 243.51129391 31.1793177 244.58309078 31.17466927 C247.15736665 31.16286066 249.73152849 31.14639189 252.30574703 31.12584114 C241.79915625 48.58830308 241.79915625 48.58830308 237.49324703 54.68834114 C236.95957516 55.45146614 236.42590328 56.21459114 235.87605953 57.00084114 C234.30574703 59.12584114 234.30574703 59.12584114 232.54793453 61.12584114 C226.66484127 68.34973241 227.75799247 76.29076286 228.30574703 85.12584114 C231.7248604 86.83539782 235.63809798 86.2673036 239.39949703 86.25865364 C240.30196163 86.25961037 241.20442623 86.26056709 242.13423824 86.26155281 C244.04411037 86.26223393 245.95398481 86.26038435 247.8638525 86.25621223 C250.79375546 86.25086303 253.72350511 86.25615951 256.65340328 86.26255989 C258.50626821 86.2618991 260.35913303 86.26061791 262.21199703 86.25865364 C263.53233944 86.26168999 263.53233944 86.26168999 264.87935543 86.26478767 C269.22896633 86.38254286 269.22896633 86.38254286 273.30574703 85.12584114 C273.30574703 80.17584114 273.30574703 75.22584114 273.30574703 70.12584114 C265.71574703 69.79584114 258.12574703 69.46584114 250.30574703 69.12584114 C254.80214991 60.13303539 254.80214991 60.13303539 256.82137203 57.08287239 C257.2644067 56.40861214 257.70744137 55.73435188 258.16390133 55.0396595 C258.85286495 53.99950691 258.85286495 53.99950691 259.55574703 52.93834114 C260.03374752 52.1978553 260.51174801 51.45736946 261.00423336 50.69444466 C263.19534849 47.30072316 265.40796782 43.95058183 267.80184078 40.69615364 C273.85875331 32.03725196 274.24703921 25.31009959 273.30574703 15.12584114 C271.02764064 13.98678795 269.76878333 13.99917125 267.23909664 13.99644661 C266.40160381 13.99329445 265.56411098 13.99014229 264.70123959 13.98689461 C263.34338093 13.98993095 263.34338093 13.98993095 261.95809078 13.99302864 C260.5675423 13.99159355 260.5675423 13.99159355 259.14890194 13.99012947 C257.18775521 13.98944838 255.22660624 13.99129775 253.26546383 13.99547005 C250.25214776 14.00082532 247.23898035 13.99551956 244.22566891 13.98912239 C242.32397587 13.98978307 240.42228292 13.99106401 238.52059078 13.99302864 C237.61332745 13.99100441 236.70606411 13.98898018 235.77130795 13.98689461 C231.7170619 13.5891398 231.7170619 13.5891398 228.30574703 15.12584114 Z M101.30574703 16.12584114 C101.25946465 24.95738102 101.22389878 33.78887934 101.20212269 42.62051392 C101.19167277 46.72112872 101.17749166 50.82166072 101.15486813 54.92222786 C101.13318263 58.87739695 101.12118752 62.83248625 101.11599255 66.78771019 C101.11228904 68.298839 101.10505728 69.80996331 101.09428692 71.32105827 C101.0798288 73.43300346 101.07776667 75.54461638 101.07869625 77.65660286 C101.07425503 78.86017433 101.0698138 80.0637458 101.065238 81.30378914 C101.01198966 84.26175531 101.01198966 84.26175531 103.30574703 86.12584114 C106.36507298 86.40790399 106.36507298 86.40790399 109.80574703 86.31334114 C110.97105953 86.30689583 112.13637203 86.30045052 113.33699703 86.29380989 C116.23456705 86.32642053 116.23456705 86.32642053 118.30574703 85.12584114 C118.63574703 75.55584114 118.96574703 65.98584114 119.30574703 56.12584114 C120.29574703 55.63084114 120.29574703 55.63084114 121.30574703 55.12584114 C121.57524166 55.83393929 121.84473629 56.54203743 122.12239742 57.27159309 C124.27957638 62.47472476 127.07236417 67.3598021 129.74324703 72.31334114 C130.32912594 73.41871223 130.91500484 74.52408333 131.51863766 75.66295052 C132.08646969 76.71675911 132.65430172 77.7705677 133.23934078 78.85630989 C133.75552975 79.81948128 134.27171871 80.78265266 134.80354977 81.77501106 C136.24244524 84.37429405 136.24244524 84.37429405 139.30574703 86.12584114 C142.50953828 86.36830897 142.50953828 86.36830897 145.99324703 86.25084114 C147.76248531 86.22377083 147.76248531 86.22377083 149.56746578 86.19615364 C150.47109859 86.17295052 151.37473141 86.14974739 152.30574703 86.12584114 C153.83289283 81.37728771 154.5407543 77.49370822 154.44100094 72.45616341 C154.41074322 70.53496429 154.41074322 70.53496429 154.37987423 68.57495308 C154.34758112 67.19737914 154.31505417 65.81981067 154.28230953 64.44224739 C154.25610634 63.01737294 154.23084229 61.59248093 154.20647335 60.16757393 C154.14017512 56.43722819 154.06120834 52.70725662 153.97951412 48.97722054 C153.89824739 45.1629733 153.82908378 41.34850818 153.75887203 37.53404427 C153.61961044 30.06437927 153.46695165 22.59506824 153.30574703 15.12584114 C150.57496827 13.76045176 148.35014336 13.99352288 145.30574703 14.00084114 C144.23324703 13.99826302 143.16074703 13.99568489 142.05574703 13.99302864 C139.34392651 13.93860704 139.34392651 13.93860704 137.30574703 15.12584114 C136.10228027 21.60488233 136.1871961 28.05494701 136.24324703 34.62584114 C136.24775875 35.63904427 136.25227047 36.65224739 136.25691891 37.69615364 C136.2686011 40.17277941 136.28498121 42.64927771 136.30574703 45.12584114 C133.36005174 42.56645748 131.88263141 39.67290192 130.12605953 36.21568489 C129.52664547 35.06132942 128.92723141 33.90697395 128.30965328 32.71763802 C127.36620092 30.8885007 126.4276959 29.05730207 125.49959469 27.22032356 C124.59733133 25.44081999 123.67443135 23.67182748 122.75105953 21.90318489 C122.20981441 20.84349495 121.6685693 19.78380501 121.11092281 18.69200325 C119.04397492 15.75371689 117.72735864 15.04906767 114.30574703 14.12584114 C112.00600837 13.81486434 112.00600837 13.81486434 109.74324703 13.87584114 C108.99945797 13.87068489 108.25566891 13.86552864 107.48934078 13.86021614 C105.05455652 14.15639741 103.45900064 14.98955062 101.30574703 16.12584114 Z " fill="#000000" transform="translate(155.69425296783447,374.87415885925293)"/>
</svg>
